<svg viewBox="0 0 400 300" xmlns="http://www.w3.org/2000/svg">
  <defs>
    <linearGradient id="brainGradient" x1="0%" y1="0%" x2="100%" y2="100%">
      <stop offset="0%" style="stop-color:#8b5cf6;stop-opacity:1" />
      <stop offset="100%" style="stop-color:#06b6d4;stop-opacity:1" />
    </linearGradient>
    <linearGradient id="bgGradient" x1="0%" y1="0%" x2="100%" y2="100%">
      <stop offset="0%" style="stop-color:#f8fafc;stop-opacity:1" />
      <stop offset="100%" style="stop-color:#e2e8f0;stop-opacity:1" />
    </linearGradient>
  </defs>
  
  <!-- Background -->
  <rect width="400" height="300" fill="url(#bgGradient)"/>
  
  <!-- Brain Shape -->
  <g fill="url(#brainGradient)" opacity="0.9">
    <!-- Left hemisphere -->
    <path d="M140 120 Q120 100 130 80 Q140 70 160 75 Q180 80 185 100 Q190 120 180 140 Q170 160 150 155 Q130 150 135 130 Z"/>
    <!-- Right hemisphere -->
    <path d="M210 120 Q230 100 220 80 Q210 70 190 75 Q170 80 165 100 Q160 120 170 140 Q180 160 200 155 Q220 150 215 130 Z"/>
    
    <!-- Brain folds/details -->
    <path d="M145 90 Q155 85 165 90 Q175 95 185 90" stroke="white" stroke-width="2" fill="none" opacity="0.7"/>
    <path d="M135 110 Q150 105 165 110" stroke="white" stroke-width="1.5" fill="none" opacity="0.7"/>
    <path d="M175 110 Q185 105 195 110" stroke="white" stroke-width="1.5" fill="none" opacity="0.7"/>
  </g>
  
  <!-- Neural connections -->
  <g stroke="#8b5cf6" stroke-width="1" opacity="0.4">
    <line x1="175" y1="100" x2="200" y2="80"/>
    <line x1="175" y1="120" x2="220" y2="110"/>
    <line x1="165" y1="140" x2="180" y2="170"/>
    <line x1="150" y1="100" x2="120" y2="90"/>
    <line x1="140" y1="130" x2="110" y2="140"/>
  </g>
  
  <!-- Emotion indicators -->
  <g opacity="0.8">
    <!-- Fear (red) -->
    <circle cx="100" cy="90" r="20" fill="#ef4444" opacity="0.7"/>
    <text x="100" y="96" font-family="Arial" font-size="20" text-anchor="middle">๐จ</text>
    <text x="100" y="120" font-family="Arial" font-size="10" text-anchor="middle" fill="#ef4444">ุฎูู</text>
    
    <!-- Greed (yellow) -->
    <circle cx="300" cy="90" r="20" fill="#f59e0b" opacity="0.7"/>
    <text x="300" y="96" font-family="Arial" font-size="20" text-anchor="middle">๐ค</text>
    <text x="300" y="120" font-family="Arial" font-size="10" text-anchor="middle" fill="#f59e0b">ุทูุน</text>
    
    <!-- Confidence (green) -->
    <circle cx="120" cy="200" r="18" fill="#10b981" opacity="0.7"/>
    <text x="120" y="206" font-family="Arial" font-size="18" text-anchor="middle">๐</text>
    <text x="120" y="225" font-family="Arial" font-size="10" text-anchor="middle" fill="#10b981">ุซูุฉ</text>
    
    <!-- Stress (orange) -->
    <circle cx="280" cy="200" r="18" fill="#f97316" opacity="0.7"/>
    <text x="280" y="206" font-family="Arial" font-size="18" text-anchor="middle">๐ฐ</text>
    <text x="280" y="225" font-family="Arial" font-size="10" text-anchor="middle" fill="#f97316">ุถุบุท</text>
  </g>
  
  <!-- Chart showing emotional trading pattern -->
  <g opacity="0.6">
    <rect x="50" y="250" width="300" height="40" fill="white" rx="5" opacity="0.8"/>
    <!-- Emotional trading line (volatile) -->
    <polyline points="70,270 90,260 110,275 130,255 150,280 170,250 190,275 210,260 230,285 250,255 270,270 290,250 310,265 330,275" 
              fill="none" stroke="#ef4444" stroke-width="2" stroke-dasharray="3,3"/>
    <!-- Rational trading line (steady) -->
    <polyline points="70,275 90,273 110,271 130,269 150,267 170,265 190,263 210,261 230,259 250,257 270,255 290,253 310,251 330,249" 
              fill="none" stroke="#10b981" stroke-width="2"/>
  </g>
  
  <!-- Balance/scale icon -->
  <g transform="translate(180, 170)" opacity="0.7">
    <rect x="-15" y="0" width="30" height="3" fill="#64748b" rx="1"/>
    <circle cx="0" cy="0" r="3" fill="#64748b"/>
    <rect x="-20" y="-10" width="15" height="8" fill="#3b82f6" opacity="0.7"/>
    <rect x="5" y="-10" width="15" height="8" fill="#ef4444" opacity="0.7"/>
    <line x1="0" y1="0" x2="0" y2="15" stroke="#64748b" stroke-width="2"/>
  </g>
  
  <!-- Title in Arabic -->
  <text x="200" y="40" font-family="Arial" font-size="16" font-weight="bold" fill="#334155" text-anchor="middle" dir="rtl">ุนูู ุงูููุณ ูู ุงูุชุฏุงูู</text>
</svg>